# xmcd CD database file
#
# Track frame offsets:
#	150
#	12870
#	31948
#	46065
#	56266
#	72015
#	84481
#	93387
#	110000
#	127856
#	143381
#	160550
#
# Disc length: 2303 seconds
#
# Revision: 0
# Processed by: cddbd v1.5.1PL0 Copyright (c) Steve Scherf et al.
# Submitted via: CDex 1.51
#
DISCID=8208fd0c
DTITLE=Teri Thornton - Open Highway
DYEAR=1963
DGENRE=Jazz
TTITLE0=Open Highway (Route 66 Theme)
TTITLE1=This Is All I Ask
TTITLE2=Baby, Won't You Please Come Home
TTITLE3=You Don't Know
TTITLE4=Seems Like Old Times
TTITLE5=Where Are You Running
TTITLE6=Everytime I Think About You
TTITLE7=The Day I Stop Loving You
TTITLE8=Goodbye Is A Lonesome Sound
TTITLE9=Music! Maestro, Please
TTITLE10=Born To Be Blue
TTITLE11=You
EXTD=YEAR: 1963
EXTT0=
EXTT1=
EXTT2=
EXTT3=
EXTT4=
EXTT5=
EXTT6=
EXTT7=
EXTT8=
EXTT9=
EXTT10=
EXTT11=
PLAYORDER=
